<?xml version="1.0"?>
<svg version="1.1" xmlns="http://www.w3.org/2000/svg" width="400px" height="200px" style="border: dashed 2px #aaa"><path fill="#ff0000" d="M4.3642578125,91.6748046875q-0.0537109375-0.6552734375,0.0859375-1.138671875t0.55859375-0.794921875t1.3427734375-0.3115234375l3.458984375,0q0.708984375,0,1.8583984375,0.0751953125t2.470703125,0.2255859375t2.6318359375,0.4619140625t2.3955078125,0.7734375t1.76171875,1.138671875t0.6767578125,1.6005859375q0,1.310546875-0.7626953125,2.4599609375t-1.912109375,2.0732421875t-2.427734375,1.6435546875t-2.2880859375,1.2998046875q3.99609375,0.880859375,6.251953125,3.65234375t2.255859375,6.91796875q0,2.19140625-0.837890625,4.3291015625t-2.2880859375,3.8564453125t-3.4375,2.771484375t-4.2646484375,1.052734375q-0.30078125,0-0.6767578125-0.064453125t-0.6875-0.2041015625t-0.537109375-0.3974609375t-0.2255859375-0.666015625q0-1.890625,2.041015625-1.890625q0.34375,0,0.8056640625,0.0966796875t0.7197265625,0.3974609375q1.181640625-0.494140625,2.1591796875-1.568359375t1.654296875-2.3955078125t1.052734375-2.771484375t0.3759765625-2.6318359375q0-1.41796875-0.4189453125-2.8896484375t-1.2138671875-2.728515625t-1.955078125-2.1162109375t-2.6640625-1.07421875q-0.38671875-0.04296875-0.8486328125-0.064453125l-0.923828125-0.04296875t-0.90234375-0.12890625t-0.7626953125-0.34375q0.171875,3.56640625,0.4404296875,7.111328125t0.7197265625,7.111328125q0.171875,0.171875,0.236328125,0.5048828125t0.107421875,0.708984375t0.04296875,0.7197265625l0,0.580078125q0,0.38671875-0.2578125,0.6337890625t-0.6123046875,0.3974609375t-0.751953125,0.193359375t-0.6982421875,0.04296875q-0.966796875,0-1.482421875-0.2578125t-0.73046875-0.751953125t-0.279296875-1.1279296875t-0.107421875-1.3857421875q-0.580078125-5.994140625-0.837890625-11.859375t-0.2578125-11.859375q0-0.708984375-0.0537109375-1.3642578125z M8.328125,90.76171875q0,2.642578125,0.171875,5.2958984375t0.30078125,5.2958984375q0.966796875-0.580078125,2.53515625-1.3642578125t3.0400390625-1.7294921875t2.5244140625-2.083984375t1.052734375-2.470703125q0-1.052734375-1.24609375-1.6005859375t-2.900390625-0.81640625t-3.2333984375-0.3330078125t-2.2451171875-0.193359375z M27.09837890625,107.970703125q0-0.880859375,0.3115234375-1.482421875t1.3212890625-0.6015625q0.38671875,0,0.966796875,0.1181640625t0.666015625,0.5908203125q0.21484375,1.267578125,0.236328125,2.75t0.150390625,2.79296875q0.494140625-0.966796875,1.267578125-2.083984375t1.76171875-2.0625t2.1484375-1.568359375t2.36328125-0.623046875q0.0859375,0,0.322265625,0.064453125t0.4404296875,0.1826171875t0.2470703125,0.2685546875t-0.236328125,0.279296875q-0.0859375,0.2578125-0.365234375,0.3115234375t-0.494140625,0.0537109375q-0.12890625,0-0.408203125-0.107421875q-1.58984375,0.837890625-2.70703125,2.27734375t-1.826171875,3.1904296875t-1.03125,3.6953125t-0.322265625,3.7919921875q0,0.923828125-0.4189453125,1.1171875t-1.3427734375,0.193359375q-0.494140625,0-1.0419921875-0.107421875t-0.7626953125-0.6875q-0.38671875-1.224609375-0.6337890625-2.814453125t-0.3759765625-3.2763671875t-0.1826171875-3.3193359375t-0.0537109375-2.943359375z M42.3666796875,113.986328125q0-1.4609375,0.3974609375-2.814453125t1.1923828125-2.4169921875t1.9873046875-1.697265625t2.7607421875-0.6337890625q0.966796875,0,2.1376953125,0.2900390625t2.2021484375,0.859375t1.71875,1.4501953125t0.6875,2.01953125q0,0.537109375-0.1826171875,0.81640625t-0.7412109375,0.279296875l-0.236328125-0.04296875q0.623046875,1.67578125,1.07421875,3.4375t0.880859375,3.5234375q0.171875,0.34375,0.2578125,0.6123046875t0.0859375,0.5263671875q0,0.34375-0.193359375,0.5693359375t-0.5048828125,0.3330078125t-0.64453125,0.150390625t-0.5908203125,0.04296875q-0.923828125,0-1.3857421875-0.322265625t-0.666015625-0.880859375t-0.2470703125-1.2568359375t-0.171875-1.4072265625q-0.2578125,0.837890625-0.6767578125,1.6328125t-0.98828125,1.4287109375t-1.3427734375,1.009765625t-1.740234375,0.3759765625q-1.41796875,0-2.384765625-0.81640625t-1.5576171875-2.0087890625t-0.859375-2.5458984375t-0.2685546875-2.513671875z M45.4174609375,113.685546875q0,0.794921875,0.107421875,1.67578125t0.3544921875,1.740234375t0.6337890625,1.6220703125t0.966796875,1.3427734375q1.052734375-1.138671875,1.5576171875-2.771484375t0.90234375-3.1474609375t0.90234375-2.599609375t1.5576171875-1.0849609375q0.666015625,0,1.1171875,0.236328125q-0.21484375-0.537109375-0.708984375-1.0419921875t-1.1064453125-0.923828125t-1.267578125-0.6875t-1.2353515625-0.2685546875q-0.171875,0-0.3974609375,0.0537109375t-0.3544921875,0.0107421875q-0.880859375,0.2578125-1.4501953125,0.8916015625t-0.923828125,1.4931640625t-0.5048828125,1.76171875t-0.150390625,1.697265625z M61.02951171875,115.705078125q0-0.794921875,0.0322265625-2.3310546875t0.2255859375-3.1259765625t0.6337890625-2.87890625t1.3212890625-1.654296875q0.21484375-0.0859375,0.6982421875-0.150390625t0.966796875-0.04296875t0.859375,0.171875t0.3759765625,0.55859375q0,0.0859375-0.0859375,0.236328125t-0.451171875,0.47265625q-0.666015625,1.84765625-0.81640625,3.673828125t-0.150390625,3.759765625q0,1.138671875,0.0751953125,2.27734375t0.2470703125,2.298828125q0.34375-0.494140625,0.6982421875-1.482421875t0.751953125-2.1591796875t0.81640625-2.3740234375t0.9453125-2.19140625t1.16015625-1.6328125t1.4287109375-0.64453125q0.880859375,0,1.4716796875,1.1064453125t1.095703125,2.556640625t0.9453125,2.943359375t1.0634765625,2.2880859375q0.30078125-0.30078125,0.4833984375-0.7841796875t0.2900390625-1.0419921875t0.12890625-1.1064453125t0.021484375-0.9345703125q0-0.966796875-0.2900390625-2.0947265625t-0.6123046875-2.1162109375t-0.6123046875-1.6650390625t-0.2900390625-0.7841796875q0-0.171875,0.1826171875-0.279296875t0.4189453125-0.171875t0.4833984375-0.0859375t0.3759765625-0.021484375q0.794921875,0,1.3642578125,0.880859375t0.90234375,2.041015625t0.4833984375,2.3525390625t0.150390625,1.8583984375q0,0.837890625-0.12890625,1.783203125t-0.4833984375,1.7509765625t-1.0419921875,1.3427734375t-1.740234375,0.537109375q-1.267578125,0-2.083984375-0.708984375t-1.3212890625-1.71875t-0.794921875-2.2021484375t-0.5478515625-2.1591796875q-0.494140625,1.138671875-0.90234375,2.87890625t-1.03125,3.416015625t-1.58984375,2.857421875t-2.513671875,1.181640625t-2.2021484375-0.7626953125t-1.0419921875-2.0947265625l0.04296875,0.04296875q-0.2578125-0.966796875-0.3330078125-1.93359375t-0.0751953125-1.93359375z M83.237265625,114.09375l0-0.623046875q0-0.7734375,0.04296875-1.4609375q0.04296875-0.966796875,0.04296875-1.58984375q0-0.34375,0.04296875-0.7841796875t0.21484375-0.6982421875q0.21484375-0.21484375,0.5048828125-0.4404296875t0.6337890625-0.2255859375q1.095703125,0,1.71875,0.2470703125t0.666015625,1.0205078125l0.0859375,0.666015625q0.38671875-0.923828125,1.03125-2.2880859375t1.4931640625-2.599609375t1.912109375-2.10546875t2.2451171875-0.8701171875q1.095703125,0,1.8046875,1.03125t1.1279296875,2.6318359375t0.5908203125,3.56640625t0.236328125,3.8564453125t0.0859375,3.4482421875t0.150390625,2.3525390625q0.0859375,0.666015625,0.2900390625,1.4072265625t0.2041015625,1.3642578125q0,0.171875-0.2470703125,0.3330078125t-0.5263671875,0.2685546875t-0.5693359375,0.171875t-0.4189453125,0.064453125q-0.837890625,0-1.1923828125-1.2568359375t-0.4404296875-3.1474609375t-0.0859375-4.0927734375t-0.150390625-4.0927734375t-0.6123046875-3.1474609375t-1.4716796875-1.2998046875q-0.923828125,0-1.912109375,1.1923828125t-1.697265625,3.1689453125q-0.6875,1.9765625-0.9453125,4.490234375q-0.0859375,0.794921875-0.0859375,1.58984375q0,1.740234375,0.365234375,3.48046875q0.04296875,0.30078125-0.2470703125,0.451171875t-0.7197265625,0.236328125t-0.8701171875,0.107421875t-0.6767578125,0.021484375q-0.837890625,0-1.3427734375-0.5908203125t-0.7841796875-1.5146484375t-0.3759765625-2.0732421875t-0.1181640625-2.2666015625z M102.75947265625,109.1953125q0-0.623046875,0.3544921875-0.81640625t0.8916015625-0.193359375q0.880859375,0,1.3427734375,0.3330078125t0.4619140625,1.1708984375q0,1.009765625,0.150390625,2.5244140625t0.4404296875,2.943359375t0.6875,2.4599609375t0.8271484375,1.03125q0.794921875,0,1.4072265625-1.224609375t1.07421875-3.0078125t0.794921875-3.8349609375t0.4619140625-3.6630859375q0.0859375-0.880859375,0.4189453125-1.2783203125t1.2138671875-0.3974609375q1.009765625,0,1.4716796875,0.837890625t0.5908203125,2.0625q0.107421875,1.052734375,0.107421875,2.19140625l0,0.365234375l0,0.859375q0,0.81640625,0.021484375,1.4609375l0.623046875,13.169921875l0.0859375,2.19140625q0.04296875,0.30078125,0.064453125,0.5693359375t0.021484375,0.5693359375q0,1.224609375-0.5263671875,1.5791015625t-1.7080078125,0.3544921875q-0.2578125,0-0.6552734375-0.04296875t-0.7734375-0.171875t-0.64453125-0.3544921875t-0.2685546875-0.5693359375l0.0859375-0.21484375q0.107421875-1.2890625,0.107421875-2.70703125l0-0.451171875q-0.021484375-1.67578125-0.107421875-3.39453125t-0.193359375-3.4375t-0.107421875-3.30859375q-0.30078125,0.666015625-0.6982421875,1.375t-0.923828125,1.2783203125t-1.1923828125,0.9453125t-1.50390625,0.3759765625q-1.224609375,0-2.01953125-0.64453125t-1.2353515625-1.67578125t-0.6337890625-2.3095703125t-0.2578125-2.556640625t-0.0859375-2.4384765625t-0.171875-1.955078125z"/><path fill="#" d=""/></svg>
